<?xml version="1.0" encoding="UTF-8" standalone="no"?>
<svg width="1000px" height="181px" viewBox="0 0 1000 181" version="1.1" xmlns="http://www.w3.org/2000/svg" xmlns:xlink="http://www.w3.org/1999/xlink">
    <!-- Generator: Sketch 39.1 (31720) - http://www.bohemiancoding.com/sketch -->
    <title>Cable3</title>
    <desc>Created with Sketch.</desc>
    <defs>
        <path d="M401.000395,35 L377.999605,35 L381,35 L381,26 L372,26 L372,29.0003947 L372,2.99921059 C372,1.34279232 373.350596,0 374.999211,0 L404.000789,0 C405.657208,0 407,1.35059566 407,2.99921059 L407,29.0003947 L407,26 L398,26 L398,35 L401.000395,35 Z" id="path-1"></path>
        <mask id="mask-2" maskContentUnits="userSpaceOnUse" maskUnits="objectBoundingBox" x="0" y="0" width="35" height="35" fill="white">
            <use xlink:href="#path-1"></use>
        </mask>
    </defs>
    <g id="Symbols" stroke="none" stroke-width="1" fill="none" fill-rule="evenodd">
        <g id="router" transform="translate(0.000000, -234.000000)">
            <g id="Cable3">
                <g transform="translate(500.000000, 324.500000) scale(-1, 1) translate(-500.000000, -324.500000) translate(0.000000, 234.000000)">
                    <use id="Combined-Shape" stroke="#000000" mask="url(#mask-2)" stroke-width="2" fill="#11A81C" xlink:href="#path-1"></use>
                    <path d="M388.714117,16 L300,165.785957" id="Line" stroke="#000000" stroke-width="17" stroke-linecap="round"></path>
                    <path d="M388.714117,16 L300,165.785957" id="Line" stroke="#11A81C" stroke-width="15" stroke-linecap="round"></path>
                </g>
            </g>
        </g>
    </g>
</svg>