<?xml version="1.0" encoding="UTF-8" standalone="no"?>
<svg width="1000px" height="181px" viewBox="0 0 1000 181" version="1.1" xmlns="http://www.w3.org/2000/svg" xmlns:xlink="http://www.w3.org/1999/xlink">
    <!-- Generator: Sketch 39.1 (31720) - http://www.bohemiancoding.com/sketch -->
    <title>Cable4</title>
    <desc>Created with Sketch.</desc>
    <defs>
        <path d="M362.000395,35 L338.999605,35 L342,35 L342,26 L333,26 L333,29.0003947 L333,2.99921059 C333,1.34279232 334.350596,0 335.999211,0 L365.000789,0 C366.657208,0 368,1.35059566 368,2.99921059 L368,29.0003947 L368,26 L359,26 L359,35 L362.000395,35 Z" id="path-1"></path>
        <mask id="mask-2" maskContentUnits="userSpaceOnUse" maskUnits="objectBoundingBox" x="0" y="0" width="35" height="35" fill="white">
            <use xlink:href="#path-1"></use>
        </mask>
    </defs>
    <g id="Symbols" stroke="none" stroke-width="1" fill="none" fill-rule="evenodd">
        <g id="router" transform="translate(0.000000, -234.000000)">
            <g id="Cable4">
                <g transform="translate(500.000000, 324.500000) scale(-1, 1) translate(-500.000000, -324.500000) translate(0.000000, 234.000000)">
                    <use id="Combined-Shape" stroke="#000000" mask="url(#mask-2)" stroke-width="2" fill="#BC0D30" xlink:href="#path-1"></use>
                    <path d="M349.196958,16 L100,166.128596" id="Line" stroke="#000000" stroke-width="17" stroke-linecap="round"></path>
                    <path d="M349.196958,16 L100,166.128596" id="Line" stroke="#BC0D30" stroke-width="15" stroke-linecap="round"></path>
                </g>
            </g>
        </g>
    </g>
</svg>