<?xml version="1.0" encoding="UTF-8" standalone="no"?>
<svg width="1000px" height="415px" viewBox="0 0 1000 415" version="1.1" xmlns="http://www.w3.org/2000/svg" xmlns:xlink="http://www.w3.org/1999/xlink">
    <!-- Generator: Sketch 39.1 (31720) - http://www.bohemiancoding.com/sketch -->
    <title>router</title>
    <desc>Created with Sketch.</desc>
    <defs>
        <path d="M557,239 L557,201.900998 C466.524573,186.189565 373.468674,178 278.5,178 C183.531326,178 90.4754269,186.189565 -5.68434189e-14,201.900998 L0,300 L515,300 L515,239 L557,239 Z M0,239 L43,239 L43,300 L0,300 L0,239 Z" id="path-1"></path>
        <mask id="mask-2" maskContentUnits="userSpaceOnUse" maskUnits="objectBoundingBox" x="0" y="0" width="557" height="122" fill="white">
            <use xlink:href="#path-1"></use>
        </mask>
        <polyline id="path-3" points="24.4351911 0.324059577 68 218.717872 38.8738671 223.1791 10.5212206 2.45525217 24.4351911 0.324059577"></polyline>
        <mask id="mask-4" maskContentUnits="userSpaceOnUse" maskUnits="objectBoundingBox" x="0" y="0" width="57.4787794" height="222.85504" fill="white">
            <use xlink:href="#path-3"></use>
        </mask>
        <polyline id="path-5" points="533.564809 0.324059577 490 218.717872 519.126133 223.1791 547.478779 2.45525217 533.564809 0.324059577"></polyline>
        <mask id="mask-6" maskContentUnits="userSpaceOnUse" maskUnits="objectBoundingBox" x="0" y="0" width="57.4787794" height="222.85504" fill="white">
            <use xlink:href="#path-5"></use>
        </mask>
        <path d="M29.0003947,35 L5.9996053,35 L9,35 L9,26 L0,26 L0,29.0003947 L0,2.99921059 C0,1.34279232 1.35059566,0 2.99921059,0 L32.0007894,0 C33.6572077,0 35,1.35059566 35,2.99921059 L35,29.0003947 L35,26 L26,26 L26,35 L29.0003947,35 Z" id="path-7"></path>
        <mask id="mask-8" maskContentUnits="userSpaceOnUse" maskUnits="objectBoundingBox" x="0" y="0" width="35" height="35" fill="white">
            <use xlink:href="#path-7"></use>
        </mask>
        <path d="M29.0003947,35 L5.9996053,35 L9,35 L9,26 L0,26 L0,29.0003947 L0,2.99921059 C0,1.34279232 1.35059566,0 2.99921059,0 L32.0007894,0 C33.6572077,0 35,1.35059566 35,2.99921059 L35,29.0003947 L35,26 L26,26 L26,35 L29.0003947,35 Z" id="path-9"></path>
        <mask id="mask-10" maskContentUnits="userSpaceOnUse" maskUnits="objectBoundingBox" x="0" y="0" width="35" height="35" fill="white">
            <use xlink:href="#path-9"></use>
        </mask>
        <path d="M29.0003947,35 L5.9996053,35 L9,35 L9,26 L0,26 L0,29.0003947 L0,2.99921059 C0,1.34279232 1.35059566,0 2.99921059,0 L32.0007894,0 C33.6572077,0 35,1.35059566 35,2.99921059 L35,29.0003947 L35,26 L26,26 L26,35 L29.0003947,35 Z" id="path-11"></path>
        <mask id="mask-12" maskContentUnits="userSpaceOnUse" maskUnits="objectBoundingBox" x="0" y="0" width="35" height="35" fill="white">
            <use xlink:href="#path-11"></use>
        </mask>
        <path d="M29.0003947,35 L5.9996053,35 L9,35 L9,26 L0,26 L0,29.0003947 L0,2.99921059 C0,1.34279232 1.35059566,0 2.99921059,0 L32.0007894,0 C33.6572077,0 35,1.35059566 35,2.99921059 L35,29.0003947 L35,26 L26,26 L26,35 L29.0003947,35 Z" id="path-13"></path>
        <mask id="mask-14" maskContentUnits="userSpaceOnUse" maskUnits="objectBoundingBox" x="0" y="0" width="35" height="35" fill="white">
            <use xlink:href="#path-13"></use>
        </mask>
        <path d="M29.0003947,35 L5.9996053,35 L9,35 L9,26 L0,26 L0,29.0003947 L0,2.99921059 C0,1.34279232 1.35059566,0 2.99921059,0 L32.0007894,0 C33.6572077,0 35,1.35059566 35,2.99921059 L35,29.0003947 L35,26 L26,26 L26,35 L29.0003947,35 Z" id="path-15"></path>
        <mask id="mask-16" maskContentUnits="userSpaceOnUse" maskUnits="objectBoundingBox" x="0" y="0" width="35" height="35" fill="white">
            <use xlink:href="#path-15"></use>
        </mask>
    </defs>
    <g id="Symbols" stroke="none" stroke-width="1" fill="none" fill-rule="evenodd">
        <g id="router">
            <g id="Router">
                <g transform="translate(221.000000, 0.000000)">
                    <g id="body" stroke="#000000" stroke-width="6" fill="#656565">
                        <use id="Combined-Shape" mask="url(#mask-2)" xlink:href="#path-1"></use>
                        <use id="Rectangle-11" mask="url(#mask-4)" xlink:href="#path-3"></use>
                        <use id="Rectangle-11" mask="url(#mask-6)" xlink:href="#path-5"></use>
                    </g>
                    <g id="wan" transform="translate(233.000000, 230.000000)">
                        <rect id="Rectangle-10" fill="#3C71FF" x="0" y="0" width="43" height="44" rx="3"></rect>
                        <g id="empty-port" transform="translate(4.000000, 4.000000)">
                            <g id="Group">
                                <use id="Combined-Shape" stroke="#000000" mask="url(#mask-8)" stroke-width="2" fill="#373737" xlink:href="#path-7"></use>
                                <g id="Group-2" transform="translate(4.000000, 1.000000)" fill="#FFDB00" fill-opacity="0.308169158">
                                    <rect id="Rectangle" x="0" y="0" width="4" height="4"></rect>
                                    <rect id="Rectangle" x="6" y="0" width="4" height="4"></rect>
                                    <rect id="Rectangle" x="12" y="0" width="4" height="4"></rect>
                                    <rect id="Rectangle" x="18" y="0" width="4" height="4"></rect>
                                    <rect id="Rectangle" x="24" y="0" width="4" height="4"></rect>
                                </g>
                            </g>
                        </g>
                    </g>
                    <g id="ports" transform="translate(290.000000, 230.000000)">
                        <rect id="Rectangle-10" fill="#FFBE0B" x="0" y="0" width="160" height="44" rx="3"></rect>
                        <g id="empty-port" transform="translate(43.000000, 4.000000)">
                            <g id="Group">
                                <use id="Combined-Shape" stroke="#000000" mask="url(#mask-10)" stroke-width="2" fill="#373737" xlink:href="#path-9"></use>
                                <g id="Group-2" transform="translate(4.000000, 1.000000)" fill="#FFDB00" fill-opacity="0.308169158">
                                    <rect id="Rectangle" x="0" y="0" width="4" height="4"></rect>
                                    <rect id="Rectangle" x="6" y="0" width="4" height="4"></rect>
                                    <rect id="Rectangle" x="12" y="0" width="4" height="4"></rect>
                                    <rect id="Rectangle" x="18" y="0" width="4" height="4"></rect>
                                    <rect id="Rectangle" x="24" y="0" width="4" height="4"></rect>
                                </g>
                            </g>
                        </g>
                        <g id="empty-port" transform="translate(4.000000, 4.000000)">
                            <g id="Group">
                                <use id="Combined-Shape" stroke="#000000" mask="url(#mask-12)" stroke-width="2" fill="#373737" xlink:href="#path-11"></use>
                                <g id="Group-2" transform="translate(4.000000, 1.000000)" fill="#FFDB00" fill-opacity="0.308169158">
                                    <rect id="Rectangle" x="0" y="0" width="4" height="4"></rect>
                                    <rect id="Rectangle" x="6" y="0" width="4" height="4"></rect>
                                    <rect id="Rectangle" x="12" y="0" width="4" height="4"></rect>
                                    <rect id="Rectangle" x="18" y="0" width="4" height="4"></rect>
                                    <rect id="Rectangle" x="24" y="0" width="4" height="4"></rect>
                                </g>
                            </g>
                        </g>
                        <g id="empty-port" transform="translate(82.000000, 4.000000)">
                            <g id="Group">
                                <use id="Combined-Shape" stroke="#000000" mask="url(#mask-14)" stroke-width="2" fill="#373737" xlink:href="#path-13"></use>
                                <g id="Group-2" transform="translate(4.000000, 1.000000)" fill="#FFDB00" fill-opacity="0.308169158">
                                    <rect id="Rectangle" x="0" y="0" width="4" height="4"></rect>
                                    <rect id="Rectangle" x="6" y="0" width="4" height="4"></rect>
                                    <rect id="Rectangle" x="12" y="0" width="4" height="4"></rect>
                                    <rect id="Rectangle" x="18" y="0" width="4" height="4"></rect>
                                    <rect id="Rectangle" x="24" y="0" width="4" height="4"></rect>
                                </g>
                            </g>
                        </g>
                        <g id="empty-port" transform="translate(121.000000, 4.000000)">
                            <g id="Group">
                                <use id="Combined-Shape" stroke="#000000" mask="url(#mask-16)" stroke-width="2" fill="#373737" xlink:href="#path-15"></use>
                                <g id="Group-2" transform="translate(4.000000, 1.000000)" fill="#FFDB00" fill-opacity="0.308169158">
                                    <rect id="Rectangle" x="0" y="0" width="4" height="4"></rect>
                                    <rect id="Rectangle" x="6" y="0" width="4" height="4"></rect>
                                    <rect id="Rectangle" x="12" y="0" width="4" height="4"></rect>
                                    <rect id="Rectangle" x="18" y="0" width="4" height="4"></rect>
                                    <rect id="Rectangle" x="24" y="0" width="4" height="4"></rect>
                                </g>
                            </g>
                        </g>
                    </g>
                </g>
            </g>
            <path d="M20.1251539,26.5840184 C23.5011803,115.236454 94.763061,186.498514 183.415424,189.874825 C187.153078,189.205771 190,185.934694 190,182.000217 L190,156 C114.889274,156 54,95.110726 54,20 L27.9997829,20 C24.0721289,20 20.7949104,22.8411578 20.1251539,26.5840184 Z M71,20 C71,85.7218852 124.278115,139 190,139 L190,105 C143.055796,105 105,66.9442037 105,20 L71,20 Z M122,20 C122,57.555363 152.444637,88 190,88 L190,54 C171.222319,54 156,38.7776815 156,20 L122,20 Z" id="Combined-Shape" fill-opacity="0.197690217" fill="#11A81C" transform="translate(105.000000, 105.000000) rotate(-270.000000) translate(-105.000000, -105.000000) "></path>
            <path d="M810.125154,26.5840184 C813.50118,115.236454 884.763061,186.498514 973.415424,189.874825 C977.153078,189.205771 980,185.934694 980,182.000217 L980,156 C904.889274,156 844,95.110726 844,20 L817.999783,20 C814.072129,20 810.79491,22.8411578 810.125154,26.5840184 Z M861,20 C861,85.7218852 914.278115,139 980,139 L980,105 C933.055796,105 895,66.9442037 895,20 L861,20 Z M912,20 C912,57.555363 942.444637,88 980,88 L980,54 C961.222319,54 946,38.7776815 946,20 L912,20 Z" id="Combined-Shape" fill-opacity="0.197690217" fill="#11A81C" transform="translate(895.000000, 105.000000) scale(-1, 1) rotate(-270.000000) translate(-895.000000, -105.000000) "></path>
        </g>
    </g>
</svg>