<?xml version="1.0" encoding="UTF-8" standalone="no"?>
<svg width="200px" height="300px" viewBox="0 0 200 300" version="1.1" xmlns="http://www.w3.org/2000/svg" xmlns:xlink="http://www.w3.org/1999/xlink">
    <!-- Generator: Sketch 39.1 (31720) - http://www.bohemiancoding.com/sketch -->
    <title>internet tunnel</title>
    <desc>Created with Sketch.</desc>
    <defs></defs>
    <g id="Symbols" stroke="none" stroke-width="1" fill="none" fill-rule="evenodd">
        <g id="internet-tunnel">
            <g id="Group-2" transform="translate(98.000000, 101.000000)" stroke-linecap="round">
                <g id="Cable3" transform="translate(1.500000, 59.500000) scale(-1, 1) translate(-1.500000, -59.500000) ">
                    <path d="M1.5,0 L1.5,119" id="Line" stroke="#000000" stroke-width="17"></path>
                    <path d="M1.5,0 L1.5,119" id="Line" stroke="#D1E8F8" stroke-width="15"></path>
                </g>
            </g>
            <g id="cloud" transform="translate(14.000000, 37.000000)">
                <path d="M59.9285346,119.204457 C53.7003533,123.740373 46.0308281,126.416484 37.7362637,126.416484 C16.8951008,126.416484 0,109.521383 0,88.6802198 C0,77.946567 4.48138203,68.2595972 11.6752012,61.388255 C11.441822,59.827554 11.3208791,58.2300987 11.3208791,56.6043956 C11.3208791,53.3211335 11.8141768,50.1530872 12.7306992,47.1703297 C11.8141768,44.1875722 11.3208791,41.0195259 11.3208791,37.7362637 C11.3208791,20.0212752 25.6817148,5.66043956 43.3967033,5.66043956 C54.2869225,5.66043956 63.9095647,11.0875818 69.7075537,19.38479 C71.3824034,19.0808343 73.1025598,18.9069297 74.8571827,18.8739163 C81.3811367,7.59133135 93.578219,0 107.548352,0 C128.389515,0 145.284615,16.8951008 145.284615,37.7362637 C145.284615,42.3773809 144.446774,46.8228096 142.914092,50.9295488 C142.961567,50.9946365 143.008804,51.0599097 143.055801,51.1253672 C159.157209,52.8378627 171.7,66.4640585 171.7,83.0197802 C171.7,100.734769 157.339164,115.095604 139.624176,115.095604 C132.496544,115.095604 125.911901,112.770789 120.587167,108.838076 C113.898931,119.402419 102.108686,126.416484 88.6802198,126.416484 C81.3699124,126.416484 74.5451073,124.337801 68.7646332,120.739265 C65.6903862,120.640634 62.7253946,120.109405 59.9285383,119.204458 Z" id="Combined-Shape" fill="#FFFFFF"></path>
                <ellipse id="Oval-3" fill-opacity="0.643483922" fill="#B8DCF4" cx="43.3967033" cy="37.7362637" rx="32.0758242" ry="32.0758242"></ellipse>
                <ellipse id="Oval-3" fill-opacity="0.643483922" fill="#B8DCF4" cx="139.624176" cy="83.0197802" rx="32.0758242" ry="32.0758242"></ellipse>
                <circle id="Oval-3" fill-opacity="0.643483922" fill="#B8DCF4" cx="37.7362637" cy="88.6802198" r="37.7362637"></circle>
                <circle id="Oval-3" fill-opacity="0.643483922" fill="#B8DCF4" cx="88.6802198" cy="88.6802198" r="37.7362637"></circle>
                <ellipse id="Oval-3" fill-opacity="0.643483922" fill="#B8DCF4" cx="107.548352" cy="37.7362637" rx="37.7362637" ry="37.7362637"></ellipse>
                <ellipse id="Oval-3" fill-opacity="0.473533741" fill="#E8F5FD" cx="75.4725275" cy="50.943956" rx="32.0758242" ry="32.0758242"></ellipse>
                <ellipse id="Oval-3" fill-opacity="0.473533741" fill="#E8F5FD" cx="43.3967033" cy="56.6043956" rx="32.0758242" ry="32.0758242"></ellipse>
                <ellipse id="Oval-3" fill-opacity="0.473533741" fill="#E8F5FD" cx="116.982418" cy="69.8120879" rx="32.0758242" ry="32.0758242"></ellipse>
                <ellipse id="Oval-3" fill-opacity="0.473533741" fill="#E8F5FD" cx="69.8120879" cy="88.6802198" rx="32.0758242" ry="32.0758242"></ellipse>
            </g>
        </g>
    </g>
</svg>